<svg viewBox="0 0 760 490" xmlns="http://www.w3.org/2000/svg" width="760" height="490">
  <defs>
    <style>text { font-family: "JetBrains Mono", "Courier New", monospace; }</style>
  </defs>

  <rect width="760" height="490" fill="#0d1117" rx="12"/>
  <rect width="760" height="3" fill="#00f0c8"/>

  <!-- header -->
  <text x="36" y="50" font-size="11" fill="#555e6b" text-anchor="start" letter-spacing="2.5">HARDWARE ENGINEER</text>
  <text x="36" y="82" font-size="26" fill="#e6edf3" text-anchor="start" font-weight="700" letter-spacing="-0.5">out-of-mana8</text>
  <text x="36" y="104" font-size="12" fill="#8b949e" text-anchor="start">ECE @ Vanderbilt University · Synaptics · AI-optimized silicon</text>

  <line x1="36" y1="128" x2="724" y2="128" stroke="#21262d" stroke-width="0.5"/>

  <!-- pipeline -->
  <rect x="59" y="144" width="92" height="30" rx="5" fill="#0d1117" stroke="#00f0c8" stroke-width="0.8"/>
  <text x="105" y="164" font-size="11" fill="#00f0c8" text-anchor="middle">schematic</text>
  <rect x="169" y="144" width="92" height="30" rx="5" fill="#0d1117" stroke="#21262d" stroke-width="0.8"/>
  <text x="215" y="164" font-size="11" fill="#8b949e" text-anchor="middle">PCB layout</text>
  <rect x="279" y="144" width="92" height="30" rx="5" fill="#0d1117" stroke="#21262d" stroke-width="0.8"/>
  <text x="325" y="164" font-size="11" fill="#8b949e" text-anchor="middle">JLCPCB fab</text>
  <rect x="389" y="144" width="92" height="30" rx="5" fill="#0d1117" stroke="#21262d" stroke-width="0.8"/>
  <text x="435" y="164" font-size="11" fill="#8b949e" text-anchor="middle">bring-up</text>
  <rect x="499" y="144" width="92" height="30" rx="5" fill="#0d1117" stroke="#21262d" stroke-width="0.8"/>
  <text x="545" y="164" font-size="11" fill="#8b949e" text-anchor="middle">firmware</text>
  <rect x="609" y="144" width="92" height="30" rx="5" fill="#0d1117" stroke="#00f0c8" stroke-width="0.8"/>
  <text x="655" y="164" font-size="11" fill="#00f0c8" text-anchor="middle">UI / API</text>
  <line x1="151" y1="159" x2="162" y2="159" stroke="#21262d" stroke-width="1"/>
  <polygon points="162,155 169,159 162,163" fill="#21262d"/>
  <line x1="261" y1="159" x2="272" y2="159" stroke="#21262d" stroke-width="1"/>
  <polygon points="272,155 279,159 272,163" fill="#21262d"/>
  <line x1="371" y1="159" x2="382" y2="159" stroke="#21262d" stroke-width="1"/>
  <polygon points="382,155 389,159 382,163" fill="#21262d"/>
  <line x1="481" y1="159" x2="492" y2="159" stroke="#21262d" stroke-width="1"/>
  <polygon points="492,155 499,159 492,163" fill="#21262d"/>
  <line x1="591" y1="159" x2="602" y2="159" stroke="#21262d" stroke-width="1"/>
  <polygon points="602,155 609,159 602,163" fill="#21262d"/>

  <line x1="36" y1="194" x2="724" y2="194" stroke="#21262d" stroke-width="0.5"/>

  <!-- domain cards -->
  <rect x="36" y="210" width="163" height="116" rx="7" fill="#0d1117" stroke="#21262d" stroke-width="0.5"/>
  <rect x="36" y="210" width="163" height="3" fill="#00f0c8"/>
  <text x="50" y="230" font-size="10" fill="#00f0c8" text-anchor="start" letter-spacing="2">AUDIO</text>
  <text x="50" y="248" font-size="11" fill="#8b949e" text-anchor="start">full-duplex · AEC/VAD</text>
  <text x="50" y="268" font-size="11" fill="#8b949e" text-anchor="start">I²S signal chains</text>
  <text x="50" y="288" font-size="11" fill="#8b949e" text-anchor="start">edge STT→LLM→TTS</text>
  <text x="50" y="312" font-size="10" fill="#30363d" text-anchor="start">ESP32-S3 · Class-D amp</text>
  <rect x="211" y="210" width="163" height="116" rx="7" fill="#0d1117" stroke="#21262d" stroke-width="0.5"/>
  <rect x="211" y="210" width="163" height="3" fill="#00b896"/>
  <text x="225" y="230" font-size="10" fill="#00b896" text-anchor="start" letter-spacing="2">VISION</text>
  <text x="225" y="248" font-size="11" fill="#8b949e" text-anchor="start">MIPI CSI-2 · DSI</text>
  <text x="225" y="268" font-size="11" fill="#8b949e" text-anchor="start">IMX708 · ESP32-P4</text>
  <text x="225" y="288" font-size="11" fill="#8b949e" text-anchor="start">IMU · LiPo power</text>
  <text x="225" y="312" font-size="10" fill="#30363d" text-anchor="start">custom SoC board</text>
  <rect x="386" y="210" width="163" height="116" rx="7" fill="#0d1117" stroke="#21262d" stroke-width="0.5"/>
  <rect x="386" y="210" width="163" height="3" fill="#007a63"/>
  <text x="400" y="230" font-size="10" fill="#007a63" text-anchor="start" letter-spacing="2">AVIONICS</text>
  <text x="400" y="248" font-size="11" fill="#8b949e" text-anchor="start">EE validation · Zipline</text>
  <text x="400" y="268" font-size="11" fill="#8b949e" text-anchor="start">GPS RTK prototyping</text>
  <text x="400" y="288" font-size="11" fill="#8b949e" text-anchor="start">ESP32 mesh networks</text>
  <text x="400" y="312" font-size="10" fill="#30363d" text-anchor="start">Oshkosh AeroTech</text>
  <rect x="561" y="210" width="163" height="116" rx="7" fill="#0d1117" stroke="#21262d" stroke-width="0.5"/>
  <rect x="561" y="210" width="163" height="3" fill="#4d9e8c"/>
  <text x="575" y="230" font-size="10" fill="#4d9e8c" text-anchor="start" letter-spacing="2">SENSING</text>
  <text x="575" y="248" font-size="11" fill="#8b949e" text-anchor="start">op-amp · anti-alias</text>
  <text x="575" y="268" font-size="11" fill="#8b949e" text-anchor="start">flex PCB · wearable</text>
  <text x="575" y="288" font-size="11" fill="#8b949e" text-anchor="start">medical · env. monitor</text>
  <text x="575" y="312" font-size="10" fill="#30363d" text-anchor="start">Stanford AI Lab</text>

  <line x1="36" y1="342" x2="724" y2="342" stroke="#21262d" stroke-width="0.5"/>

  <!-- signal chain -->
  <text x="36" y="354" font-size="10" fill="#30363d" text-anchor="start" letter-spacing="2">SIGNAL CHAIN</text>
  <text x="36" y="370" font-size="11" fill="#79c0ff" text-anchor="start">analog:</text>
  <text x="118" y="370" font-size="11" fill="#8b949e" text-anchor="start">op-amp · anti-alias filter · ESD protection</text>
  <text x="36" y="394" font-size="11" fill="#79c0ff" text-anchor="start">digital:</text>
  <text x="118" y="394" font-size="11" fill="#8b949e" text-anchor="start">I²S · MIPI CSI-2 · MIPI DSI · SPI · I²C · UART · USB-C</text>
  <text x="36" y="418" font-size="11" fill="#79c0ff" text-anchor="start">power:</text>
  <text x="118" y="418" font-size="11" fill="#8b949e" text-anchor="start">LiPo · LDO · decoupling · ESD · power sequencing</text>

  <line x1="36" y1="446" x2="724" y2="446" stroke="#21262d" stroke-width="0.5"/>

  <!-- footer -->
  <text x="36" y="472" font-size="10" fill="#30363d" text-anchor="start">PlatformIO · KiCad · EasyEDA Pro · FreeRTOS · C++ · Python · JLCPCB</text>
  <text x="724" y="472" font-size="10" fill="#00f0c8" text-anchor="end">schematic → silicon</text>

</svg>