<svg viewBox="0 0 760 840" xmlns="http://www.w3.org/2000/svg" width="760" height="840">
  <defs>
    <style>text { font-family: "JetBrains Mono", "Courier New", monospace; }</style>
  </defs>
  <rect width="760" height="840" fill="#0d1117" rx="12"/>
  <rect width="760" height="3" fill="#00f0c8"/>

  <!-- header -->
  <text x="36" y="54" font-size="30" fill="#e6edf3" text-anchor="start" font-weight="700" letter-spacing="-0.5">Tausif Samin</text>
  <rect x="36" y="65" width="155" height="24" rx="5" fill="#1a2540"/>
  <text x="46" y="80" font-size="14" fill="#c9d1d9" text-anchor="start">ECE @ Vanderbilt</text>
  <rect x="201" y="65" width="155" height="24" rx="5" fill="#1a2540"/>
  <text x="211" y="80" font-size="14" fill="#c9d1d9" text-anchor="start">ASIC @ Synaptics</text>
  <line x1="36" y1="120" x2="724" y2="120" stroke="#30363d" stroke-width="0.5"/>

  <!-- pipeline -->
  <rect x="36" y="127" width="104" height="23" rx="5" fill="#0e2820"/>
  <text x="46" y="142" font-size="13" fill="#00f0c8" text-anchor="start" letter-spacing="3">PIPELINE</text>
  <rect x="36" y="172" width="150" height="42" rx="5" fill="#0d1117" stroke="#00f0c8" stroke-width="0.9"/>
  <text x="111" y="198" font-size="14" fill="#00f0c8" text-anchor="middle">schematic</text>
  <rect x="215" y="172" width="150" height="42" rx="5" fill="#0d1117" stroke="#00f0c8" stroke-width="0.9"/>
  <text x="290" y="198" font-size="14" fill="#00f0c8" text-anchor="middle">PCB layout</text>
  <rect x="394" y="172" width="150" height="42" rx="5" fill="#0d1117" stroke="#00f0c8" stroke-width="0.9"/>
  <text x="469" y="198" font-size="14" fill="#00f0c8" text-anchor="middle">PCB fab</text>
  <rect x="573" y="172" width="150" height="42" rx="5" fill="#0d1117" stroke="#00f0c8" stroke-width="0.9"/>
  <text x="648" y="198" font-size="14" fill="#00f0c8" text-anchor="middle">bring-up</text>
  <line x1="186" y1="193" x2="207" y2="193" stroke="#4e6070" stroke-width="1.8"/>
  <polygon points="207,188 215,193 207,198" fill="#4e6070"/>
  <line x1="365" y1="193" x2="386" y2="193" stroke="#4e6070" stroke-width="1.8"/>
  <polygon points="386,188 394,193 386,198" fill="#4e6070"/>
  <line x1="544" y1="193" x2="565" y2="193" stroke="#4e6070" stroke-width="1.8"/>
  <polygon points="565,188 573,193 565,198" fill="#4e6070"/>
  <line x1="648" y1="214" x2="648" y2="252" stroke="#4e6070" stroke-width="1.8"/>
  <polygon points="643,252 648,260 653,252" fill="#4e6070"/>
  <rect x="36" y="260" width="150" height="42" rx="5" fill="#0d1117" stroke="#00f0c8" stroke-width="0.9"/>
  <text x="111" y="286" font-size="14" fill="#00f0c8" text-anchor="middle">UI / API</text>
  <rect x="215" y="260" width="150" height="42" rx="5" fill="#0d1117" stroke="#00f0c8" stroke-width="0.9"/>
  <text x="290" y="286" font-size="14" fill="#00f0c8" text-anchor="middle">server</text>
  <rect x="394" y="260" width="150" height="42" rx="5" fill="#0d1117" stroke="#00f0c8" stroke-width="0.9"/>
  <text x="469" y="286" font-size="14" fill="#00f0c8" text-anchor="middle">firmware</text>
  <rect x="573" y="260" width="150" height="42" rx="5" fill="#0d1117" stroke="#00f0c8" stroke-width="0.9"/>
  <text x="648" y="286" font-size="14" fill="#00f0c8" text-anchor="middle">validate</text>
  <line x1="215" y1="281" x2="194" y2="281" stroke="#4e6070" stroke-width="1.8"/>
  <polygon points="194,276 186,281 194,286" fill="#4e6070"/>
  <line x1="394" y1="281" x2="373" y2="281" stroke="#4e6070" stroke-width="1.8"/>
  <polygon points="373,276 365,281 373,286" fill="#4e6070"/>
  <line x1="573" y1="281" x2="552" y2="281" stroke="#4e6070" stroke-width="1.8"/>
  <polygon points="552,276 544,281 552,286" fill="#4e6070"/>
  <line x1="36" y1="350" x2="724" y2="350" stroke="#30363d" stroke-width="0.5"/>

  <!-- domains 2x2 -->
  <rect x="36" y="357" width="93" height="23" rx="5" fill="#0e2820"/>
  <text x="46" y="372" font-size="13" fill="#00f0c8" text-anchor="start" letter-spacing="3">DOMAINS</text>
  <rect x="36" y="402" width="336" height="162" rx="8" fill="#161b22" stroke="#30363d" stroke-width="0.6"/>
  <rect x="36" y="402" width="336" height="3" fill="#00f0c8"/>
  <text x="46" y="428" font-size="13" fill="#00f0c8" text-anchor="start" letter-spacing="2">AUDIO</text>
  <text x="46" y="456" font-size="14" fill="#c9d1d9" text-anchor="start">full-duplex · AEC/VAD</text>
  <text x="46" y="480" font-size="14" fill="#c9d1d9" text-anchor="start">I²S signal chains</text>
  <text x="46" y="504" font-size="14" fill="#c9d1d9" text-anchor="start">edge STT→LLM→TTS</text>
  <text x="46" y="542" font-size="13" fill="#8b949e" text-anchor="start">ESP32-S3 · Class-D amp</text>
  <rect x="388" y="402" width="336" height="162" rx="8" fill="#161b22" stroke="#30363d" stroke-width="0.6"/>
  <rect x="388" y="402" width="336" height="3" fill="#00b896"/>
  <text x="398" y="428" font-size="13" fill="#00b896" text-anchor="start" letter-spacing="2">VISION</text>
  <text x="398" y="456" font-size="14" fill="#c9d1d9" text-anchor="start">MIPI CSI-2 · DSI</text>
  <text x="398" y="480" font-size="14" fill="#c9d1d9" text-anchor="start">IMX708 · ESP32-P4</text>
  <text x="398" y="504" font-size="14" fill="#c9d1d9" text-anchor="start">ISP · RAW10 · D-PHY</text>
  <text x="398" y="542" font-size="13" fill="#8b949e" text-anchor="start">custom SoC board</text>
  <rect x="36" y="580" width="336" height="162" rx="8" fill="#161b22" stroke="#30363d" stroke-width="0.6"/>
  <rect x="36" y="580" width="336" height="3" fill="#007a63"/>
  <text x="46" y="606" font-size="13" fill="#007a63" text-anchor="start" letter-spacing="2">AVIONICS</text>
  <text x="46" y="634" font-size="14" fill="#c9d1d9" text-anchor="start">compute · EE validation</text>
  <text x="46" y="658" font-size="14" fill="#c9d1d9" text-anchor="start">signal · power integrity</text>
  <text x="46" y="682" font-size="14" fill="#c9d1d9" text-anchor="start">GPS RTK · mesh networks</text>
  <text x="46" y="720" font-size="13" fill="#8b949e" text-anchor="start">Zipline · Oshkosh AeroTech</text>
  <rect x="388" y="580" width="336" height="162" rx="8" fill="#161b22" stroke="#30363d" stroke-width="0.6"/>
  <rect x="388" y="580" width="336" height="3" fill="#4d9e8c"/>
  <text x="398" y="606" font-size="13" fill="#4d9e8c" text-anchor="start" letter-spacing="2">SENSING</text>
  <text x="398" y="634" font-size="14" fill="#c9d1d9" text-anchor="start">EMG · ECG signal acquisition</text>
  <text x="398" y="658" font-size="14" fill="#c9d1d9" text-anchor="start">INA · PGA · sigma-delta ADC</text>
  <text x="398" y="682" font-size="14" fill="#c9d1d9" text-anchor="start">flex bioelectronics · MEMS</text>
  <text x="398" y="720" font-size="13" fill="#8b949e" text-anchor="start">Research</text>
  <line x1="36" y1="770" x2="724" y2="770" stroke="#30363d" stroke-width="0.5"/>

  <!-- footer -->
  <text x="36" y="810" font-size="12" fill="#8b949e" text-anchor="start">PlatformIO · KiCad · EasyEDA Pro · FreeRTOS · C++ · Python</text>
  <text x="724" y="810" font-size="12" fill="#00f0c8" text-anchor="end">schematic → silicon</text>
</svg>